<?xml version="1.0" standalone="no"?>
<!DOCTYPE svg PUBLIC "-//W3C//DTD SVG 20010904//EN"
 "http://www.w3.org/TR/2001/REC-SVG-20010904/DTD/svg10.dtd">
<svg version="1.0" xmlns="http://www.w3.org/2000/svg"
 width="2000.000000pt" height="2000.000000pt" viewBox="0 0 2000.000000 2000.000000"
 preserveAspectRatio="xMidYMid meet">

<g transform="translate(0.000000,2000.000000) scale(0.100000,-0.100000)"
fill="#000000" stroke="none">
<path d="M7826 17850 c-32 -5 -86 -18 -120 -29 -33 -11 -90 -29 -126 -40 -246
-78 -457 -295 -540 -556 -32 -100 -39 -312 -15 -421 69 -312 309 -552 631
-631 77 -18 283 -23 349 -7 30 8 2 10 -120 10 -190 -1 -241 11 -390 85 -221
110 -362 275 -431 504 -35 118 -38 298 -6 416 72 268 284 492 552 581 90 31
102 32 250 32 143 0 162 -2 240 -28 158 -53 262 -118 372 -234 77 -81 130
-172 169 -286 110 -321 -1 -686 -273 -891 -59 -45 -216 -128 -288 -154 -18 -6
-31 -14 -27 -17 9 -9 186 45 251 77 197 98 346 268 416 476 98 294 37 602
-167 840 -167 197 -476 312 -727 273z"/>
<path d="M7925 17363 c-90 -20 -149 -66 -180 -140 -15 -35 -38 -200 -30 -212
2 -4 -40 -17 -93 -29 -75 -17 -98 -19 -105 -9 -12 17 -1 144 18 196 8 24 14
46 11 48 -9 10 -169 34 -176 26 -20 -20 -42 -178 -36 -253 l6 -76 -65 -13
c-36 -7 -65 -17 -65 -21 0 -17 24 -115 29 -122 4 -4 33 -1 66 7 33 8 63 14 67
15 4 0 16 -20 27 -44 67 -152 232 -225 367 -162 88 41 128 115 140 256 l7 78
100 25 100 25 -6 -86 c-3 -48 -8 -94 -12 -103 -7 -18 8 -23 111 -34 76 -9 75
-10 82 147 l4 118 37 10 c20 5 43 10 51 10 35 1 41 14 29 71 -6 30 -15 58 -19
63 -8 7 -56 0 -121 -20 -12 -3 -24 11 -44 53 -62 126 -190 201 -300 176z m124
-239 c14 -13 22 -26 19 -29 -9 -9 -151 -45 -157 -40 -10 11 27 81 49 92 30 15
57 8 89 -23z m-343 -296 c-7 -39 -39 -68 -73 -68 -23 0 -73 40 -73 58 0 7 102
36 144 41 5 1 6 -14 2 -31z"/>
<path d="M9144 16051 c-23 -10 -51 -29 -64 -42 -27 -29 -60 -96 -59 -124 0
-11 9 2 19 29 25 64 72 111 128 131 54 18 65 18 115 4 49 -13 105 -63 128
-114 47 -102 -5 -224 -113 -269 -53 -22 -97 -20 -154 9 -56 28 -92 74 -110
143 l-13 47 0 -43 c-1 -57 22 -104 71 -147 101 -86 258 -61 324 51 21 36 26
58 27 117 1 63 -2 79 -26 120 -40 67 -94 100 -171 104 -44 3 -72 -2 -102 -16z"/>
<path d="M9210 16006 c0 -7 -14 -19 -31 -26 -57 -24 -58 -98 -2 -123 21 -9 27
-18 25 -34 -3 -20 -6 -21 -24 -12 -16 9 -23 8 -29 -2 -16 -25 -9 -41 21 -52
18 -7 30 -19 30 -29 0 -11 7 -18 20 -18 13 0 20 7 20 20 0 13 7 20 20 20 29 0
60 35 60 68 0 29 -20 54 -52 65 -19 7 -25 47 -7 47 6 0 20 -5 31 -11 16 -9 23
-8 29 2 17 27 9 41 -31 56 -22 9 -40 22 -40 30 0 7 -9 13 -20 13 -11 0 -20 -6
-20 -14z m45 -185 c3 -5 1 -12 -5 -16 -5 -3 -10 1 -10 9 0 18 6 21 15 7z"/>
<path d="M7769 15863 c-40 -92 -53 -179 -53 -343 1 -128 5 -177 27 -283 52
-246 137 -471 332 -877 143 -299 170 -359 248 -560 206 -527 336 -1061 392
-1605 29 -287 47 -844 28 -832 -5 3 -6 -45 -5 -106 4 -106 -5 -351 -28 -847
-6 -118 -13 -234 -16 -258 l-5 -43 -66 3 -65 3 -19 73 c-45 177 -150 346 -323
517 -286 285 -624 429 -1258 538 l-198 34 0 -26 c0 -14 9 -64 19 -111 79 -355
293 -669 589 -864 118 -77 144 -91 252 -132 l85 -33 -1032 -1 -1033 0 0 -110
0 -110 -65 0 c-36 0 -81 -6 -100 -14 -71 -30 -97 -130 -52 -197 32 -48 79 -69
155 -69 l62 0 0 -65 0 -65 -47 0 c-71 0 -123 -18 -160 -55 -28 -28 -33 -40
-33 -81 0 -55 24 -103 64 -129 14 -10 56 -19 100 -22 l76 -6 0 -177 0 -177
-67 -6 c-104 -9 -188 -34 -298 -87 -222 -107 -382 -304 -448 -551 l-22 -84 0
-2990 c0 -3227 -3 -3043 52 -3220 112 -358 409 -654 763 -759 l85 -25 -1740
-2 c-1622 -2 -1691 -3 -1010 -11 1037 -13 13147 -14 14120 -1 l790 10 -792 1
-793 2 0 545 0 545 235 0 235 0 0 545 0 545 -265 0 -265 0 0 540 0 540 -412
-6 c-227 -4 -415 -8 -417 -10 -2 -2 179 -4 402 -4 l407 0 0 -530 0 -530 -1637
3 -1638 2 -3 523 -2 522 794 0 c514 0 797 3 801 10 4 6 -267 8 -794 3 l-801
-6 -2 1824 c-3 1690 -3 1725 -5 483 l-3 -1341 -123 -7 c-160 -9 -431 -39 -639
-71 -92 -14 -177 -25 -190 -24 -34 2 73 26 175 40 48 6 85 14 83 17 -7 6 -337
-39 -387 -54 -13 -4 -18 5 -24 43 -18 121 -85 275 -168 386 -68 90 -170 172
-282 227 -130 65 -194 81 -342 87 -151 7 -232 -10 -390 -77 -146 -63 -210
-105 -313 -210 -264 -266 -323 -654 -149 -980 18 -33 30 -62 28 -64 -2 -2 -80
-42 -174 -89 -674 -336 -1144 -400 -1785 -241 -321 79 -653 207 -1247 480
-409 188 -728 306 -1023 378 -229 56 -320 67 -592 73 l-248 5 -2 807 -3 806
-5 -810 c-5 -800 -5 -810 -25 -813 -11 -2 -29 -7 -40 -12 -11 -5 -47 -16 -80
-25 -33 -9 -76 -25 -97 -36 -20 -10 -40 -19 -43 -19 -3 0 -5 660 -5 1468 0
1394 1 1472 19 1558 73 354 378 623 741 653 l75 6 3 198 2 197 -70 0 c-86 0
-133 18 -160 62 -26 43 -25 87 3 129 28 42 71 58 160 58 l67 1 0 84 0 84 -90
4 c-84 3 -91 5 -120 33 -39 40 -48 90 -25 139 23 49 62 67 157 73 l78 6 0 108
0 109 1038 0 c1016 0 1041 0 1138 -21 196 -41 396 -41 603 2 l113 23 41 -22
c38 -19 39 -20 18 -2 l-23 20 51 0 51 0 0 -44 c0 -23 -3 -71 -6 -105 l-7 -61
-1471 -2 -1471 -1 1470 -9 c808 -5 1471 -10 1473 -12 1 -2 -1 -57 -5 -122 l-8
-119 -1450 -5 -1450 -5 1447 -3 c796 -1 1449 -5 1451 -9 3 -5 2 -34 0 -65 l-5
-58 -1347 -2 c-839 -1 -1224 -4 -1021 -9 179 -3 786 -7 1349 -8 l1024 -1 -7
-92 c-3 -50 -6 -106 -6 -125 l0 -33 -1467 -2 -1468 -1 1465 -9 c805 -5 1466
-10 1467 -12 2 -2 0 -82 -3 -179 l-7 -177 -1461 -2 -1461 -3 1455 -2 c800 -2
1458 -7 1462 -11 5 -5 5 -130 2 -279 l-7 -271 -49 36 c-27 21 -57 51 -67 67
-24 40 -129 132 -219 190 -187 120 -410 185 -636 185 -76 0 -107 -4 -124 -16
-12 -8 -22 -20 -22 -25 0 -16 89 -106 155 -158 217 -171 478 -251 749 -231
l109 8 52 -33 52 -34 7 -423 c11 -698 35 -1229 81 -1833 14 -176 27 -338 29
-360 2 -22 12 -128 22 -235 11 -107 20 -186 22 -174 2 11 -6 119 -17 240 -53
572 -93 1212 -78 1232 6 7 49 36 95 63 l85 50 91 -26 c175 -50 306 -68 496
-68 186 0 272 9 440 47 251 57 529 191 730 353 88 71 246 233 311 318 166 217
286 482 341 752 12 61 20 114 17 117 -9 9 -381 -45 -614 -90 -708 -137 -1171
-377 -1509 -783 -147 -177 -266 -405 -301 -576 -5 -24 -22 -41 -97 -88 -50
-32 -92 -56 -93 -55 -19 20 -46 1830 -30 2026 6 72 9 82 26 82 22 0 23 -6 4
-85 -8 -33 -14 -69 -14 -80 0 -11 10 21 22 70 l22 90 1585 5 1585 5 -1577 3
c-1366 2 -1578 4 -1578 16 0 24 49 154 96 254 l43 92 543 1 c299 1 998 5 1553
8 l1010 7 -1542 2 c-849 1 -1543 5 -1543 9 0 10 50 93 103 171 l49 72 1027 1
c564 1 1166 5 1336 8 193 5 -190 8 -1012 9 -728 1 -1323 5 -1323 8 0 4 23 33
51 65 l51 59 1391 2 1392 3 -1384 5 -1383 5 88 85 c49 47 106 98 127 114 l37
29 69 -32 c84 -39 183 -61 274 -61 74 0 195 24 241 47 l28 15 -23 24 c-12 13
-21 25 -18 26 2 0 454 4 1004 8 l1000 6 -1009 2 c-555 1 -1011 3 -1013 6 -2 2
5 19 16 37 25 41 29 158 7 210 -32 75 -113 128 -196 129 l-46 0 -12 60 c-7 33
-15 60 -19 60 -3 0 -28 -17 -55 -37 -60 -46 -132 -131 -164 -195 l-24 -48
-396 0 -396 0 6 73 c7 88 23 398 36 720 13 311 13 927 0 1092 -40 502 -132
986 -270 1410 l-42 127 44 45 c53 55 86 73 133 73 63 0 187 30 293 72 216 84
416 252 528 444 44 75 15 88 -128 59 -155 -32 -294 -91 -426 -179 -143 -97
-292 -258 -329 -356 -9 -25 -39 -68 -66 -97 l-51 -52 -51 142 c-69 190 -152
381 -300 687 -230 476 -337 797 -360 1087 -9 112 10 271 44 371 32 91 31 108
0 35z m2136 -5630 c43 -22 65 -43 85 -83 38 -74 34 -158 -9 -211 l-18 -22 -45
18 c-43 18 -44 19 -26 37 10 10 18 29 18 43 0 25 -34 65 -57 65 -7 0 -13 11
-13 26 0 19 4 25 15 20 8 -3 21 -9 29 -12 9 -3 19 3 26 16 14 26 4 36 -42 47
-19 3 -28 12 -28 24 0 26 -36 25 -43 -1 -3 -11 -11 -20 -19 -20 -21 0 -11 68
11 74 24 7 81 -4 116 -21z m-105 -119 c0 -8 -4 -12 -10 -9 -5 3 -10 10 -10 16
0 5 5 9 10 9 6 0 10 -7 10 -16z m-315 -31 c-6 -17 -31 -118 -41 -170 l-4 -23
-370 0 -370 0 0 28 c0 16 3 63 6 105 l7 77 390 0 c367 0 389 -1 382 -17z m275
-28 c38 -20 43 -59 6 -49 -16 4 -27 1 -33 -9 -4 -8 -22 -16 -38 -19 l-31 -4
31 47 c16 27 31 48 33 48 2 1 16 -6 32 -14z m85 -34 c3 -5 1 -12 -5 -16 -5 -3
-10 1 -10 9 0 18 6 21 15 7z m-410 -160 c-6 -5 -38 -31 -72 -58 -33 -26 -95
-78 -136 -115 l-74 -68 -232 0 -231 0 0 79 c0 43 3 99 6 125 l7 46 370 0 c226
0 367 -4 362 -9z m-295 -257 c0 -3 -23 -32 -51 -65 l-52 -59 -178 0 -179 0 0
58 c0 32 3 62 7 65 8 8 453 9 453 1z m-127 -156 c-4 -7 -34 -51 -65 -98 -31
-47 -62 -98 -69 -113 -12 -27 -13 -27 -111 -27 l-98 0 0 64 c0 34 3 91 6 125
l7 61 169 0 c133 0 167 -3 161 -12z m-195 -325 c-17 -38 -50 -117 -73 -178
-33 -90 -45 -111 -63 -113 -22 -3 -22 -1 -22 116 0 65 3 147 6 181 l7 61 88 0
88 0 -31 -67z m2342 -3258 c224 -71 397 -218 496 -421 38 -78 86 -239 73 -247
-2 -1 -86 -23 -187 -48 l-184 -46 -9 24 c-14 38 -13 40 51 65 33 12 60 28 60
34 0 9 -37 108 -45 121 -1 2 -30 -9 -65 -24 l-63 -27 -26 34 c-74 101 -142
142 -242 148 -121 7 -224 -62 -249 -169 -7 -28 -11 -91 -9 -140 l4 -91 -92
-38 -91 -38 -8 26 c-4 15 -8 74 -9 132 l-1 105 -86 3 -85 3 -7 -32 c-11 -57
-5 -173 12 -240 l18 -66 -63 -28 c-35 -15 -63 -29 -63 -31 0 -5 50 -117 54
-121 1 -2 31 8 65 22 58 24 81 25 81 6 0 -9 -269 -146 -274 -140 -19 21 -82
168 -97 228 -66 258 -9 512 163 728 99 125 262 229 423 271 112 29 126 31 255
27 92 -2 132 -8 200 -30z m-73 -619 l28 -24 -25 -10 c-14 -6 -48 -19 -76 -30
-29 -12 -54 -19 -57 -16 -7 8 9 73 23 89 19 23 75 18 107 -9z m830 -42 c-3 -3
-12 -4 -19 -1 -8 3 -5 6 6 6 11 1 17 -2 13 -5z m-742 -139 c0 -25 -183 -92
-192 -69 -7 20 -8 19 88 59 90 37 104 38 104 10z m1380 -152 c-6 -38 -9 -44
-16 -28 -10 25 -11 102 -2 135 7 23 8 21 16 -17 5 -23 6 -63 2 -90z m-1765 4
c0 -19 -125 -68 -139 -54 -8 8 7 19 52 38 71 32 87 34 87 16z m-4077 -204
c112 -40 182 -82 262 -161 101 -99 154 -185 196 -322 19 -61 23 -97 23 -190 0
-133 -17 -208 -71 -318 -39 -79 -38 -79 -108 -52 l-25 9 30 48 c69 108 98 296
66 423 -42 167 -144 291 -306 373 -149 74 -272 92 -413 61 -261 -58 -439 -277
-438 -538 0 -99 22 -189 65 -263 l24 -41 -62 -27 c-33 -15 -67 -29 -74 -32
-15 -6 -65 99 -88 187 -21 80 -23 244 -5 320 51 211 194 391 383 484 122 61
194 76 338 73 99 -3 127 -7 203 -34z m-98 -158 c143 -36 283 -142 352 -265 91
-161 87 -382 -10 -537 l-32 -52 -55 19 c-30 10 -87 28 -127 39 l-72 22 27 39
c29 43 44 47 82 25 14 -8 28 -14 31 -15 6 0 39 73 39 85 0 3 -18 12 -41 21
l-40 17 6 51 c13 105 -37 192 -123 215 -65 18 -115 0 -176 -64 l-51 -53 -58
27 -59 26 30 40 c16 23 41 49 56 58 14 10 26 21 26 25 0 4 -17 27 -38 51 l-38
45 -49 -45 c-26 -24 -60 -63 -75 -86 l-26 -41 -42 18 c-23 10 -43 16 -46 12
-2 -4 -11 -24 -19 -44 l-16 -38 43 -18 42 -19 -4 -71 c-5 -87 19 -137 81 -172
78 -44 159 -23 229 60 l33 39 62 -26 c69 -29 69 -26 3 -99 l-35 -39 -125 -2
c-110 -1 -283 -26 -344 -49 -18 -7 -40 26 -67 101 -41 118 -41 269 2 377 94
240 377 386 624 323z m5944 -1035 c0 -272 -2 -601 -7 -730 -7 -227 -7 -231
-13 -115 -9 176 -10 1376 -1 1545 l7 145 6 -175 c4 -96 7 -398 8 -670z m-5927
543 c16 -14 26 -53 13 -53 -15 0 -85 34 -85 41 0 9 29 28 44 29 5 0 18 -7 28
-17z m-312 -19 c46 -19 49 -26 16 -43 -32 -17 -66 0 -66 34 0 30 -1 29 50 9z
m3970 -542 c25 -14 78 -43 117 -64 70 -38 74 -42 88 -91 8 -29 69 -254 135
-502 67 -247 128 -472 135 -498 l14 -48 -35 -15 c-20 -8 -134 -59 -253 -114
-291 -132 -393 -163 -405 -122 -2 9 -30 116 -61 237 -70 274 -74 287 -89 282
-6 -2 -102 -28 -212 -57 -111 -29 -208 -56 -215 -60 -12 -8 -3 -52 57 -261 4
-14 -3 -14 -65 2 -144 37 -369 50 -491 30 l-45 -7 -104 383 -103 382 20 28
c21 30 152 238 444 704 l179 287 422 -235 c232 -130 442 -247 467 -261z
m-1321 193 c5 -19 21 -81 36 -139 l27 -104 -62 -101 c-34 -56 -64 -101 -65
-99 -8 9 -117 429 -113 434 8 7 129 42 150 43 11 1 20 -11 27 -34z m7761 -939
l0 -524 -1582 -6 c-871 -4 -1727 -6 -1903 -4 l-320 3 -3 528 -2 527 1905 0
1905 0 0 -524z m-10605 138 c61 -9 113 -20 117 -23 5 -4 -11 -26 -35 -49 l-42
-41 -104 16 -103 16 6 36 c3 20 6 44 6 55 0 14 5 17 23 13 12 -3 72 -13 132
-23z m815 -135 c338 -56 617 -104 619 -105 1 -1 0 -25 -4 -52 l-6 -49 -282 48
c-236 41 -562 94 -982 162 l-80 13 41 42 c23 23 50 42 60 42 11 0 296 -45 634
-101z m-160 -108 c305 -52 405 -72 403 -82 -1 -8 -18 -119 -39 -246 l-37 -233
-34 0 c-55 0 -150 38 -227 89 -165 111 -242 134 -463 135 -95 1 -153 5 -153
11 0 6 14 99 32 209 l33 198 40 -6 c22 -3 222 -37 445 -75z m8473 -448 l1007
-6 0 -544 0 -543 -2117 1 -2118 0 85 28 c195 64 346 158 485 302 106 110 149
173 215 312 59 123 86 216 102 353 l12 104 661 0 c364 0 1115 -3 1668 -7z"/>
<path d="M15543 2745 c0 -289 3 -460 7 -405 10 124 10 699 1 815 -5 52 -8
-122 -8 -410z"/>
<path d="M15003 1660 c0 -498 1 -517 9 -272 5 149 5 382 0 535 -8 256 -9 241
-9 -263z"/>
<path d="M13700 15849 c-167 -18 -290 -63 -403 -149 -147 -112 -202 -227 -228
-477 -21 -202 16 -441 101 -664 65 -167 73 -205 68 -297 -5 -67 -12 -91 -61
-192 -63 -132 -77 -182 -77 -277 0 -90 17 -146 81 -277 70 -143 71 -181 10
-308 -47 -98 -59 -162 -42 -225 16 -59 87 -160 148 -209 l51 -41 73 14 c41 7
79 19 85 26 6 6 80 89 165 182 85 94 231 256 324 360 93 105 241 264 329 355
200 205 305 329 367 432 26 43 49 83 51 89 2 6 31 7 75 3 40 -4 71 -10 69 -13
-2 -3 20 -7 50 -7 103 -3 245 -89 315 -190 40 -59 76 -175 83 -269 3 -44 10
-123 16 -175 5 -52 12 -169 16 -259 l7 -165 34 39 c122 142 157 424 79 653
-13 37 -48 117 -79 178 -65 127 -76 170 -77 276 0 106 -16 171 -54 221 -25 34
-57 55 -171 112 -180 90 -184 95 -260 332 -32 98 -70 206 -85 239 -60 133
-161 249 -262 300 -31 16 -66 48 -103 93 -184 228 -405 320 -695 290z m-27
-453 c32 -26 104 -78 160 -116 56 -39 129 -91 162 -115 107 -79 192 -93 287
-46 59 28 74 27 113 -12 38 -38 60 -104 51 -156 -6 -38 -49 -89 -82 -97 -13
-4 -26 -19 -33 -42 -11 -33 -9 -47 19 -136 42 -130 39 -188 -15 -301 -49 -103
-56 -172 -26 -272 12 -38 21 -85 21 -104 0 -52 -41 -126 -113 -206 -93 -105
-165 -267 -151 -341 4 -23 -6 -39 -67 -102 -39 -41 -94 -100 -122 -130 -40
-43 -49 -50 -44 -30 7 25 19 103 58 355 11 77 19 157 16 177 -3 21 -30 116
-61 211 l-57 174 -67 6 c-153 14 -283 118 -368 292 -64 133 -194 542 -194 612
0 44 40 102 138 201 104 105 162 192 190 285 l17 57 55 -59 c30 -33 81 -80
113 -105z"/>
<path d="M13715 15216 c-42 -19 -71 -43 -63 -51 4 -4 49 1 100 10 127 23 127
23 104 41 -25 18 -101 18 -141 0z"/>
<path d="M13258 15154 c-29 -15 -53 -50 -40 -57 8 -6 138 36 150 47 10 11 -20
26 -53 25 -16 0 -42 -6 -57 -15z"/>
<path d="M13765 15131 c-24 -10 -60 -49 -53 -57 3 -3 21 4 39 15 20 13 51 21
77 21 23 0 42 4 42 9 0 20 -66 27 -105 12z"/>
<path d="M13536 14990 c-13 -69 -23 -302 -14 -329 8 -21 12 -23 51 -17 56 9
72 26 17 19 -26 -4 -45 -2 -49 5 -3 6 -3 62 1 124 5 62 7 142 6 178 l-3 65 -9
-45z"/>
<path d="M13320 14999 c-28 -11 -70 -48 -70 -60 0 -5 21 3 46 16 28 15 64 25
87 25 27 0 38 3 31 10 -15 15 -67 20 -94 9z"/>
<path d="M13748 14999 c-36 -20 -13 -79 31 -79 14 0 41 29 41 45 0 17 -27 45
-43 45 -7 0 -20 -5 -29 -11z"/>
<path d="M13290 14851 c-15 -29 -13 -39 14 -56 31 -21 66 -5 66 28 0 46 -59
66 -80 28z"/>
<path d="M13790 14657 c0 -45 -30 -98 -68 -120 -40 -24 -26 -35 19 -17 56 24
88 105 59 150 -8 12 -10 9 -10 -13z"/>
<path d="M8824 15646 c-141 -102 -243 -199 -366 -346 -183 -221 -337 -580
-362 -850 -6 -64 -1 -47 21 70 51 276 205 593 396 815 72 85 215 219 317 299
88 69 96 76 89 76 -3 0 -46 -29 -95 -64z"/>
<path d="M5995 14751 c27 -201 84 -380 181 -576 91 -184 175 -304 318 -453
469 -488 1151 -677 1808 -501 l78 21 37 -21 c34 -19 35 -19 15 -2 -12 11 -27
21 -32 23 -5 2 -19 39 -30 83 -28 111 -53 174 -115 293 -73 140 -150 244 -279
379 -400 418 -895 627 -1839 777 l-149 23 7 -46z"/>
<path d="M11080 13409 c-925 -125 -1410 -317 -1783 -708 -162 -170 -299 -396
-349 -577 -23 -81 -24 -82 -81 -119 -31 -21 -60 -41 -63 -46 -3 -5 23 9 57 31
34 22 69 40 78 40 9 0 45 -9 81 -20 175 -54 402 -77 589 -61 434 39 786 198
1077 486 173 171 281 327 371 535 59 135 123 361 123 431 0 21 -1 21 -100 8z"/>
<path d="M15026 13210 c-43 -34 -227 -186 -409 -339 -183 -152 -429 -358 -547
-457 -118 -98 -233 -190 -255 -202 -103 -61 -223 -87 -805 -172 -249 -37 -432
-65 -959 -147 -95 -15 -169 -29 -163 -31 9 -3 945 124 1258 172 l152 22 27
-34 c15 -19 53 -46 83 -60 50 -23 63 -24 151 -19 53 3 103 8 112 11 28 12 82
-37 122 -109 21 -39 48 -81 61 -93 l23 -24 48 61 c27 34 49 60 51 58 2 -1 25
-108 53 -238 80 -376 80 -375 111 -409 19 -21 37 -30 57 -29 l28 1 -29 7 c-50
11 -64 44 -106 251 -21 107 -63 309 -94 448 -48 222 -59 258 -85 291 l-30 38
27 25 c15 14 56 35 92 48 36 12 114 47 174 77 l110 55 65 -19 c72 -20 247 -24
290 -6 18 7 -5 10 -90 9 -83 -1 -130 4 -173 17 l-58 18 87 60 c107 73 218 165
309 258 l69 70 -99 -6 c-54 -3 -97 -3 -94 0 3 3 47 10 99 16 51 7 102 16 113
22 26 14 135 163 200 272 29 49 65 100 81 113 16 14 27 27 24 30 -2 3 -39 -23
-81 -56z m-1258 -1216 c40 -31 91 -80 115 -107 43 -52 40 -50 -244 186 l-34
28 45 -25 c25 -14 78 -51 118 -82z"/>
<path d="M7464 12895 c-7 -19 -14 -40 -14 -47 0 -10 -27 -13 -112 -13 -102 0
-120 -3 -188 -30 -94 -38 -187 -124 -228 -211 -24 -53 -27 -70 -27 -169 0 -98
3 -116 27 -167 15 -32 50 -81 78 -109 l52 -52 -34 -36 c-19 -20 -42 -49 -52
-65 -22 -35 -19 -38 88 -66 128 -35 202 -43 361 -37 182 6 264 25 417 100 92
44 108 55 108 75 l0 24 48 -27 c74 -43 165 -110 323 -236 180 -145 276 -246
387 -405 7 -11 1 4 -14 31 -42 77 -103 152 -200 245 -124 119 -334 285 -445
351 l-94 56 -13 89 c-31 219 -105 388 -246 558 -43 52 -183 176 -198 176 -5 0
-16 -16 -24 -35z m-64 -105 l35 -10 1 -83 c1 -47 4 -97 8 -113 l8 -29 -24 22
c-32 30 -76 45 -112 37 -70 -15 -96 -53 -96 -138 0 -53 -1 -54 -37 -69 -47
-19 -57 -7 -51 59 l3 44 -42 0 c-37 0 -43 -3 -49 -25 -6 -23 0 -75 12 -117 3
-11 0 -18 -8 -18 -8 0 -22 -6 -32 -13 -15 -11 -16 -17 -5 -40 14 -30 21 -32
51 -16 18 10 25 7 47 -19 31 -36 61 -52 98 -52 23 0 14 -8 -51 -45 -44 -25
-83 -45 -86 -45 -16 0 -103 104 -120 143 -90 204 11 442 221 516 60 22 173 27
229 11z m-25 -290 c6 -10 -44 -35 -53 -26 -2 3 -2 12 1 21 7 17 42 21 52 5z
m45 -115 l0 -45 45 0 c39 0 45 3 45 21 0 14 14 -1 45 -47 25 -37 44 -68 42
-70 -1 -2 -36 2 -77 7 -70 10 -153 3 -204 -17 -19 -7 -19 -7 -3 16 12 17 17
45 17 86 l0 61 38 16 c53 21 52 22 52 -28z m-184 -51 c-3 -9 -6 -18 -6 -20 0
-8 -49 -4 -54 5 -4 5 6 14 21 19 40 15 46 14 39 -4z"/>
<path d="M10840 12118 c-59 -54 -165 -123 -246 -159 -120 -55 -235 -80 -390
-86 l-141 -6 10 -51 c65 -353 214 -1097 267 -1326 29 -127 40 -162 40 -128 0
37 -175 911 -259 1298 -23 102 -41 187 -41 190 0 3 54 4 119 2 256 -7 471 76
661 254 l35 33 44 -117 c108 -292 451 -1149 520 -1302 48 -105 14 -3 -74 227
-52 136 -95 251 -95 257 0 12 -50 138 -60 151 -11 14 -270 661 -271 677 0 20
-53 122 -64 125 -5 1 -30 -16 -55 -39z"/>
<path d="M14825 11465 c-473 -235 -589 -297 -587 -311 2 -9 68 -225 147 -479
l143 -462 26 -1409 27 -1409 240 -1175 c132 -646 242 -1183 245 -1193 5 -16
27 -17 322 -15 l317 3 6 270 c7 294 -4 860 -21 1069 -23 272 -50 427 -115 641
-61 203 -95 397 -96 555 -1 94 106 1277 118 1310 4 10 9 3 16 -20 49 -173 149
-447 206 -565 81 -167 146 -265 238 -358 117 -118 228 -170 363 -171 261 -1
479 158 945 689 135 153 362 424 447 532 l48 61 -188 178 c-103 98 -203 193
-223 212 l-37 34 -442 -332 c-243 -182 -446 -328 -450 -323 -4 4 -39 114 -78
243 -126 415 -232 819 -271 1040 -16 90 -16 99 2 200 31 176 9 429 -52 585
-29 76 -121 220 -212 330 -61 76 -198 212 -239 238 -14 9 -71 86 -125 172 -58
89 -106 154 -115 154 -8 0 -280 -132 -605 -294z"/>
<path d="M9213 11334 c-15 -23 -15 -29 -2 -53 11 -20 34 -33 98 -54 46 -15 92
-27 102 -25 17 3 16 9 -17 58 -49 75 -81 100 -126 100 -29 0 -41 -6 -55 -26z"/>
<path d="M9566 11266 c-3 -31 -16 -82 -27 -113 -21 -57 -91 -166 -124 -193 -9
-7 -21 -22 -26 -32 -10 -18 -9 -18 19 -4 89 46 182 215 182 330 0 67 -16 75
-24 12z"/>
<path d="M9019 11172 c-27 -23 -20 -52 13 -52 13 0 41 12 63 27 l40 28 -30 6
c-50 11 -62 10 -86 -9z"/>
<path d="M9175 11098 c-38 -22 -45 -47 -19 -73 21 -20 44 -13 113 33 l55 37
-45 7 c-63 9 -81 9 -104 -4z"/>
<path d="M10552 10103 c262 -2 694 -2 960 0 266 1 51 2 -477 2 -528 0 -745 -1
-483 -2z"/>
<path d="M12080 9937 l-5 -57 75 2 75 2 -67 3 -67 4 -3 52 -3 52 -5 -58z"/>
<path d="M12257 9860 c38 -22 54 -50 64 -105 6 -39 7 -39 8 -7 0 18 -6 46 -14
62 -16 30 -60 70 -79 70 -6 0 3 -9 21 -20z"/>
<path d="M12310 9704 c-1 -21 -39 -56 -75 -69 -23 -8 -31 -14 -20 -15 41 0
120 68 101 88 -3 3 -6 1 -6 -4z"/>
<path d="M18115 9460 c-10 -30 3 -75 27 -96 21 -19 21 -19 14 6 -4 14 -10 44
-13 68 -6 45 -18 54 -28 22z"/>
<path d="M12108 9463 c18 -2 45 -2 60 0 15 2 0 4 -33 4 -33 0 -45 -2 -27 -4z"/>
<path d="M12208 9463 c7 -3 16 -2 19 1 4 3 -2 6 -13 5 -11 0 -14 -3 -6 -6z"/>
<path d="M12241 9457 c2 -1 13 -9 24 -17 19 -14 19 -14 6 3 -7 9 -18 17 -24
17 -6 0 -8 -1 -6 -3z"/>
<path d="M18273 9408 c-17 -22 -23 -49 -17 -74 10 -38 19 -28 30 31 10 54 6
67 -13 43z"/>
<path d="M12322 9335 c0 -16 2 -22 5 -12 2 9 2 23 0 30 -3 6 -5 -1 -5 -18z"/>
<path d="M18406 9338 c-17 -24 -22 -78 -8 -78 5 0 14 17 21 38 7 20 15 43 17
50 9 21 -14 13 -30 -10z"/>
<path d="M8662 8605 c0 -16 2 -22 5 -12 2 9 2 23 0 30 -3 6 -5 -1 -5 -18z"/>
<path d="M12891 8104 c0 -11 3 -14 6 -6 3 7 2 16 -1 19 -3 4 -6 -2 -5 -13z"/>
<path d="M12901 8054 c0 -11 3 -14 6 -6 3 7 2 16 -1 19 -3 4 -6 -2 -5 -13z"/>
<path d="M6106 7198 c11 -82 65 -281 98 -367 166 -430 486 -784 891 -985 279
-138 526 -196 835 -196 195 0 439 38 571 89 26 9 63 -8 197 -92 6 -5 12 -6 12
-3 0 2 -40 30 -89 61 l-88 56 -22 84 c-27 101 -119 291 -193 397 -240 346
-603 610 -1050 764 -247 84 -567 155 -945 208 -240 34 -225 35 -217 -16z"/>
<path d="M12443 5293 c9 -2 25 -2 35 0 9 3 1 5 -18 5 -19 0 -27 -2 -17 -5z"/>
<path d="M12328 5283 c12 -2 30 -2 40 0 9 3 -1 5 -23 4 -22 0 -30 -2 -17 -4z"/>
<path d="M12253 5273 c9 -2 25 -2 35 0 9 3 1 5 -18 5 -19 0 -27 -2 -17 -5z"/>
<path d="M8793 5160 c0 -25 2 -35 4 -22 2 12 2 32 0 45 -2 12 -4 2 -4 -23z"/>
<path d="M8803 5060 c0 -25 2 -35 4 -22 2 12 2 32 0 45 -2 12 -4 2 -4 -23z"/>
<path d="M8813 4965 c0 -22 2 -30 4 -17 2 12 2 30 0 40 -3 9 -5 -1 -4 -23z"/>
<path d="M8822 4880 c0 -19 2 -27 5 -17 2 9 2 25 0 35 -3 9 -5 1 -5 -18z"/>
<path d="M8832 4795 c0 -16 2 -22 5 -12 2 9 2 23 0 30 -3 6 -5 -1 -5 -18z"/>
<path d="M8842 4715 c0 -16 2 -22 5 -12 2 9 2 23 0 30 -3 6 -5 -1 -5 -18z"/>
<path d="M15115 4700 c-3 -6 6 -15 21 -20 14 -6 38 -19 52 -30 33 -27 44 -25
30 5 -6 13 -25 31 -43 40 -38 18 -51 19 -60 5z"/>
<path d="M8852 4630 c0 -14 2 -19 5 -12 2 6 2 18 0 25 -3 6 -5 1 -5 -13z"/>
<path d="M15015 4605 c19 -20 35 -40 35 -45 0 -6 5 -10 10 -10 17 0 11 36 -11
64 -12 15 -30 26 -45 26 -24 0 -24 -1 11 -35z"/>
<path d="M14903 4545 c14 -28 25 -41 31 -35 13 13 -19 80 -38 80 -12 0 -10 -9
7 -45z"/>
<path d="M15013 3815 c0 -292 3 -472 8 -420 9 116 9 711 -1 835 -4 55 -7 -122
-7 -415z"/>
</g>
</svg>
